<svg viewBox="0 0 32 32" fill="none" xmlns="http://www.w3.org/2000/svg">
  <!-- Bond Symbol - Two Elements Becoming One -->
  <path
    d="M5 8 L5 24 L12 24 C15 24 16 22 16 20 C16 19 15 18 15 18"
    stroke="#3B82F6"
    stroke-width="2"
    stroke-linecap="round"
    stroke-linejoin="round"
    fill="none"
  />
  <path
    d="M5 12 L12 12 C13 12 15 13 15 14"
    stroke="#3B82F6"
    stroke-width="2"
    stroke-linecap="round"
    stroke-linejoin="round"
    fill="none"
  />
  <path
    d="M17 14 C19 13 20 12 21 12 L27 12"
    stroke="#3B82F6"
    stroke-width="2"
    stroke-linecap="round"
    stroke-linejoin="round"
    fill="none"
  />
  <path
    d="M17 18 C19 19 20 20 21 20 C24 20 25 22 25 24 L27 24"
    stroke="#3B82F6"
    stroke-width="2"
    stroke-linecap="round"
    stroke-linejoin="round"
    fill="none"
  />
  <circle
    cx="16"
    cy="16"
    r="2"
    fill="#3B82F6"
  />
  <path
    d="M15 14 Q16 15 17 14 M15 18 Q16 17 17 18"
    stroke="#3B82F6"
    stroke-width="0.5"
    fill="none"
    stroke-linecap="round"
    opacity="0.3"
  />
</svg>