<svg width="32" height="32" viewBox="0 0 32 32" fill="none" xmlns="http://www.w3.org/2000/svg">
  <!-- Enhanced Bond Symbol with Modern Colors and Gradients -->
  
  <!-- Background circle with gradient -->
  <defs>
    <linearGradient id="bgGradient" x1="0%" y1="0%" x2="100%" y2="100%">
      <stop offset="0%" style="stop-color:#1F2937;stop-opacity:1" />
      <stop offset="100%" style="stop-color:#111827;stop-opacity:1" />
    </linearGradient>
    <linearGradient id="strokeGradient" x1="0%" y1="0%" x2="100%" y2="100%">
      <stop offset="0%" style="stop-color:#FF6B35;stop-opacity:1" />
      <stop offset="100%" style="stop-color:#FF8A65;stop-opacity:1" />
    </linearGradient>
    <linearGradient id="centerGradient" x1="0%" y1="0%" x2="100%" y2="100%">
      <stop offset="0%" style="stop-color:#F5E9DA;stop-opacity:1" />
      <stop offset="100%" style="stop-color:#FF6B35;stop-opacity:1" />
    </linearGradient>
    <filter id="glow" x="-50%" y="-50%" width="200%" height="200%">
      <feGaussianBlur stdDeviation="1" result="coloredBlur"/>
      <feMerge> 
        <feMergeNode in="coloredBlur"/>
        <feMergeNode in="SourceGraphic"/>
      </feMerge>
    </filter>
  </defs>
  
  <!-- Background circle -->
  <circle cx="16" cy="16" r="15" fill="url(#bgGradient)" stroke="url(#strokeGradient)" stroke-width="1"/>
  
  <!-- Bond Symbol - Two Elements Becoming One (BS Logo) -->
  <path
    d="M5 8 L5 24 L12 24 C15 24 16 22 16 20 C16 19 15 18 15 18"
    stroke="url(#strokeGradient)"
    stroke-width="2.5"
    stroke-linecap="round"
    stroke-linejoin="round"
    fill="none"
    filter="url(#glow)"
  />
  <path
    d="M5 12 L12 12 C13 12 15 13 15 14"
    stroke="url(#strokeGradient)"
    stroke-width="2.5"
    stroke-linecap="round"
    stroke-linejoin="round"
    fill="none"
    filter="url(#glow)"
  />
  <path
    d="M17 14 C19 13 20 12 21 12 L27 12"
    stroke="url(#strokeGradient)"
    stroke-width="2.5"
    stroke-linecap="round"
    stroke-linejoin="round"
    fill="none"
    filter="url(#glow)"
  />
  <path
    d="M17 18 C19 19 20 20 21 20 C24 20 25 22 25 24 L27 24"
    stroke="url(#strokeGradient)"
    stroke-width="2.5"
    stroke-linecap="round"
    stroke-linejoin="round"
    fill="none"
    filter="url(#glow)"
  />
  
  <!-- Enhanced center circle with gradient -->
  <circle
    cx="16"
    cy="16"
    r="2.5"
    fill="url(#centerGradient)"
    filter="url(#glow)"
  />
  
  <!-- Subtle connection lines -->
  <path
    d="M15 14 Q16 15 17 14 M15 18 Q16 17 17 18"
    stroke="url(#centerGradient)"
    stroke-width="1"
    fill="none"
    stroke-linecap="round"
    opacity="0.6"
  />
  
  <!-- Additional accent elements -->
  <circle cx="8" cy="8" r="1" fill="url(#strokeGradient)" opacity="0.6"/>
  <circle cx="24" cy="8" r="1" fill="url(#strokeGradient)" opacity="0.6"/>
  <circle cx="8" cy="24" r="1" fill="url(#strokeGradient)" opacity="0.6"/>
  <circle cx="24" cy="24" r="1" fill="url(#strokeGradient)" opacity="0.6"/>
</svg>